<svg width="25" height="25" viewBox="0 0 25 25" fill="none" xmlns="http://www.w3.org/2000/svg">
<g id="hugeicons:math">
<g id="Group">
<path id="Vector" d="M3.07001 12.275C3.07001 7.79699 3.07001 5.55699 4.46101 4.16599C5.85201 2.77499 8.09101 2.77499 12.57 2.77499C17.048 2.77499 19.288 2.77499 20.679 4.16599C22.07 5.55699 22.07 7.79599 22.07 12.275C22.07 16.753 22.07 18.993 20.679 20.384C19.288 21.775 17.049 21.775 12.57 21.775C8.09201 21.775 5.85201 21.775 4.46101 20.384C3.07001 18.993 3.07001 16.754 3.07001 12.275Z" stroke="#0E7ECF" stroke-width="1.5" stroke-linecap="round" stroke-linejoin="round"/>
<path id="Vector_2" d="M6.07001 12.775L6.54501 12.459C7.01801 12.143 7.25501 11.985 7.48301 12.055C7.71001 12.126 7.81601 12.39 8.02801 12.919L9.57001 16.775L11.658 10.51C12.098 9.18999 12.318 8.52999 12.842 8.15299C13.366 7.77599 14.062 7.77499 15.453 7.77499H19.07M17.57 12.275L16.07 13.775M16.07 13.775L14.57 15.275M16.07 13.775L17.57 15.275M16.07 13.775L14.57 12.275" stroke="#0E7ECF" stroke-width="1.5" stroke-linecap="round" stroke-linejoin="round"/>
</g>
</g>
</svg>
